<svg width="22" height="22" viewBox="0 0 22 22" fill="none" xmlns="http://www.w3.org/2000/svg">
<circle cx="11" cy="10.75" r="10.5" fill="#258AFF"/>
<path d="M13.2934 6.64183C13.4118 6.51924 13.5534 6.42146 13.71 6.3542C13.8666 6.28694 14.035 6.25153 14.2054 6.25005C14.3758 6.24857 14.5448 6.28104 14.7025 6.34557C14.8603 6.41011 15.0036 6.50541 15.1241 6.62592C15.2446 6.74642 15.3399 6.88973 15.4044 7.04746C15.469 7.20519 15.5014 7.3742 15.5 7.54461C15.4985 7.71503 15.4631 7.88345 15.3958 8.04003C15.3285 8.19662 15.2308 8.33824 15.1082 8.45664L14.5993 8.96553L12.7845 7.15072L13.2934 6.64183ZM11.8771 8.05813L6.5 13.4352V15.25H8.31481L13.6925 9.87294L11.8764 8.05813H11.8771Z" fill="#F8FBFF"/>
</svg>
