<svg width="16" height="17" viewBox="0 0 16 17" fill="none" xmlns="http://www.w3.org/2000/svg">
<path fill-rule="evenodd" clip-rule="evenodd" d="M2.96563 2.0844C2.81475 1.93868 2.61267 1.85804 2.40291 1.85986C2.19315 1.86169 1.9925 1.94582 1.84418 2.09415C1.69585 2.24247 1.61172 2.44312 1.60989 2.65288C1.60807 2.86264 1.68871 3.06472 1.83443 3.2156L13.0344 14.4156C13.1853 14.5613 13.3874 14.642 13.5972 14.6401C13.8069 14.6383 14.0076 14.5542 14.1559 14.4059C14.3042 14.2575 14.3884 14.0569 14.3902 13.8471C14.392 13.6374 14.3114 13.4353 14.1656 13.2844L12.9872 12.106C14.2333 11.1125 15.1547 9.76994 15.6336 8.25C14.6144 5.0044 11.5824 2.65 8.00003 2.65C6.74598 2.6483 5.50923 2.94269 4.39043 3.5092L2.96643 2.0844H2.96563ZM6.37443 5.4924L7.58563 6.7044C7.8569 6.63236 8.14234 6.63284 8.41337 6.70579C8.6844 6.77873 8.93151 6.92159 9.12998 7.12005C9.32845 7.31852 9.4713 7.56564 9.54425 7.83667C9.6172 8.1077 9.61767 8.39313 9.54563 8.6644L10.7568 9.8756C11.1176 9.26442 11.265 8.55064 11.1758 7.84654C11.0865 7.14245 10.7657 6.488 10.2639 5.98614C9.76204 5.48429 9.10759 5.16352 8.40349 5.07428C7.6994 4.98505 6.98562 5.13241 6.37443 5.4932V5.4924Z" fill="#DADADA"/>
<path d="M9.96301 13.6076L7.79981 11.4436C7.02196 11.3949 6.28863 11.0639 5.73746 10.5129C5.18628 9.96188 4.85515 9.22864 4.80621 8.45081L1.86781 5.51241C1.19198 6.31722 0.68169 7.24754 0.366211 8.25001C1.38541 11.4956 4.41821 13.85 7.99981 13.85C8.67741 13.85 9.33501 13.766 9.96301 13.6076Z" fill="#DADADA"/>
</svg>
