<svg width="18" height="16" viewBox="0 0 18 16" fill="none" xmlns="http://www.w3.org/2000/svg">
<path fill-rule="evenodd" clip-rule="evenodd" d="M17.0361 5.8322L11.7083 5.05813L9.32661 0.230426C9.25881 0.115117 9.13504 0.0443115 9.00127 0.0443115C8.8675 0.0443115 8.74373 0.115117 8.67593 0.230426L6.2931 5.05704L0.96387 5.8322C0.827167 5.85193 0.713515 5.94756 0.670694 6.07887C0.627872 6.21018 0.663304 6.35442 0.762096 6.45095L4.61831 10.2092L3.70814 15.5155C3.68492 15.6516 3.74086 15.789 3.85249 15.8702C3.96413 15.9513 4.11212 15.9621 4.23435 15.898L9 13.3929L13.7656 15.897C13.8879 15.961 14.0359 15.9502 14.1475 15.8691C14.2591 15.7879 14.3151 15.6505 14.2919 15.5145L13.3817 10.2092L17.2379 6.45095C17.3367 6.35447 17.3722 6.2103 17.3294 6.07901C17.2867 5.94771 17.1731 5.85205 17.0365 5.8322H17.0361Z" fill="#F5A623"/>
</svg>
